<?xml version="1.0" standalone="no"?>
<!DOCTYPE svg PUBLIC "-//W3C//DTD SVG 20010904//EN"
 "http://www.w3.org/TR/2001/REC-SVG-20010904/DTD/svg10.dtd">
<svg version="1.0" xmlns="http://www.w3.org/2000/svg"
 width="1000.000000pt" height="1000.000000pt" viewBox="0 0 1000.000000 1000.000000"
 preserveAspectRatio="xMidYMid meet">

<g transform="translate(0.000000,1000.000000) scale(0.100000,-0.100000)"
fill="#000000" stroke="none">
<path d="M4520 9988 c-321 -39 -507 -71 -740 -130 -858 -216 -1642 -658 -2278
-1285 -137 -135 -197 -201 -337 -364 -155 -181 -393 -528 -518 -754 -241 -439
-416 -897 -517 -1360 -6 -27 -15 -68 -20 -90 -8 -39 -20 -105 -39 -222 -6 -32
-14 -96 -20 -143 -6 -47 -16 -130 -22 -185 -16 -131 -16 -743 0 -890 37 -334
60 -470 127 -745 71 -289 141 -503 252 -765 62 -149 218 -459 291 -580 248
-412 477 -705 800 -1025 762 -754 1742 -1240 2796 -1388 293 -42 366 -46 710
-45 466 0 750 33 1170 133 1084 260 2092 915 2774 1804 138 180 305 432 404
611 179 326 328 679 427 1015 12 41 26 86 30 100 18 53 80 328 99 438 31 178
39 234 62 447 16 146 16 735 0 890 -18 180 -55 428 -81 550 -27 126 -69 303
-80 335 -4 14 -18 59 -30 100 -80 275 -178 523 -317 800 -114 227 -129 253
-252 450 -289 461 -665 880 -1104 1231 -165 132 -491 352 -667 451 -358 200
-750 360 -1130 462 -292 79 -497 117 -820 151 -153 17 -840 19 -970 3z m3461
-1766 c-24 -20 -87 -73 -140 -117 -53 -45 -233 -195 -401 -336 -168 -140 -512
-428 -765 -639 -253 -212 -615 -514 -805 -673 -190 -159 -736 -616 -1215
-1015 -478 -399 -910 -760 -958 -801 l-88 -74 -69 49 c-907 641 -1593 1126
-2035 1439 -303 215 -562 397 -576 406 -13 9 -22 19 -19 22 7 7 7071 1774
7095 1775 15 1 10 -8 -24 -36z m54 16 c-2 -7 -15 -49 -28 -93 -14 -44 -42
-134 -62 -200 -20 -66 -47 -154 -60 -195 -13 -41 -40 -129 -60 -195 -20 -66
-47 -154 -60 -195 -13 -41 -40 -129 -60 -195 -20 -66 -47 -154 -60 -195 -13
-41 -40 -129 -60 -195 -20 -66 -47 -154 -60 -195 -13 -41 -40 -129 -60 -195
-20 -66 -47 -154 -60 -195 -13 -41 -40 -129 -60 -195 -20 -66 -59 -190 -85
-275 -27 -85 -69 -225 -95 -310 -25 -85 -52 -173 -60 -195 -7 -22 -34 -110
-60 -195 -25 -85 -52 -173 -60 -195 -7 -22 -34 -110 -60 -195 -26 -85 -58
-189 -71 -230 -34 -110 -114 -367 -131 -425 -8 -27 -25 -84 -38 -125 -13 -41
-56 -181 -95 -310 -40 -129 -94 -305 -120 -390 -26 -85 -80 -261 -120 -390
-40 -129 -94 -305 -120 -390 -26 -85 -80 -261 -120 -390 -40 -129 -105 -341
-145 -470 -40 -129 -94 -305 -120 -390 -26 -85 -58 -186 -70 -225 -12 -38 -26
-85 -30 -103 -13 -62 15 -107 -390 628 -206 375 -698 1262 -1140 2055 -92 165
-264 475 -382 690 l-216 389 44 39 c24 22 485 407 1024 857 539 450 1257 1049
1595 1332 338 283 872 729 1185 991 314 262 571 477 572 477 1 0 1 -6 -2 -12z
m-6113 -2493 c529 -374 1124 -795 1321 -935 l359 -255 277 -500 c152 -275 491
-885 753 -1355 261 -470 551 -992 643 -1160 92 -168 209 -379 260 -470 51 -91
102 -185 114 -210 l22 -45 -33 35 c-18 20 -125 146 -238 280 -113 135 -387
461 -609 725 -606 719 -1205 1430 -1680 1995 -234 278 -506 602 -606 720 -100
118 -338 402 -530 630 -192 228 -419 498 -505 600 -86 102 -230 273 -320 380
-90 107 -175 208 -189 224 -14 16 -21 27 -14 25 7 -2 445 -310 975 -684z"/>
</g>
</svg>
