<svg xmlns="http://www.w3.org/2000/svg" width="152" height="35" viewBox="0 0 152 35" fill="none" shape-rendering="crispEdges">
  <!--
    RINIA BRIDGE — pixel font 3x5 per char, pixel size=3
    char width=9px (3col*3px), gap=3px, stride=12px
    space=12px
    content: RINIA(5*12-3=57) + space(12) + BRIDGE(6*12-3=69) = 138px
    offsetX=(152-138)/2=7, offsetY=(35-15)/2=10
  -->
  <g fill="#CC0000" transform="translate(7, 10)">

    <!-- R -->
    <rect x="0"  y="0"  width="3" height="3"/>
    <rect x="3"  y="0"  width="3" height="3"/>
    <rect x="0"  y="3"  width="3" height="3"/>
    <rect x="6"  y="3"  width="3" height="3"/>
    <rect x="0"  y="6"  width="3" height="3"/>
    <rect x="3"  y="6"  width="3" height="3"/>
    <rect x="0"  y="9"  width="3" height="3"/>
    <rect x="6"  y="9"  width="3" height="3"/>
    <rect x="0"  y="12" width="3" height="3"/>
    <rect x="6"  y="12" width="3" height="3"/>

    <!-- I (x=12) -->
    <rect x="12" y="0"  width="3" height="3"/>
    <rect x="15" y="0"  width="3" height="3"/>
    <rect x="18" y="0"  width="3" height="3"/>
    <rect x="15" y="3"  width="3" height="3"/>
    <rect x="15" y="6"  width="3" height="3"/>
    <rect x="15" y="9"  width="3" height="3"/>
    <rect x="12" y="12" width="3" height="3"/>
    <rect x="15" y="12" width="3" height="3"/>
    <rect x="18" y="12" width="3" height="3"/>

    <!-- N (x=24) -->
    <rect x="24" y="0"  width="3" height="3"/>
    <rect x="33" y="0"  width="3" height="3"/>
    <rect x="24" y="3"  width="3" height="3"/>
    <rect x="27" y="3"  width="3" height="3"/>
    <rect x="33" y="3"  width="3" height="3"/>
    <rect x="24" y="6"  width="3" height="3"/>
    <rect x="30" y="6"  width="3" height="3"/>
    <rect x="33" y="6"  width="3" height="3"/>
    <rect x="24" y="9"  width="3" height="3"/>
    <rect x="33" y="9"  width="3" height="3"/>
    <rect x="24" y="12" width="3" height="3"/>
    <rect x="33" y="12" width="3" height="3"/>

    <!-- I (x=39) -->
    <rect x="39" y="0"  width="3" height="3"/>
    <rect x="42" y="0"  width="3" height="3"/>
    <rect x="45" y="0"  width="3" height="3"/>
    <rect x="42" y="3"  width="3" height="3"/>
    <rect x="42" y="6"  width="3" height="3"/>
    <rect x="42" y="9"  width="3" height="3"/>
    <rect x="39" y="12" width="3" height="3"/>
    <rect x="42" y="12" width="3" height="3"/>
    <rect x="45" y="12" width="3" height="3"/>

    <!-- A (x=51) -->
    <rect x="54" y="0"  width="3" height="3"/>
    <rect x="51" y="3"  width="3" height="3"/>
    <rect x="57" y="3"  width="3" height="3"/>
    <rect x="51" y="6"  width="3" height="3"/>
    <rect x="54" y="6"  width="3" height="3"/>
    <rect x="57" y="6"  width="3" height="3"/>
    <rect x="51" y="9"  width="3" height="3"/>
    <rect x="57" y="9"  width="3" height="3"/>
    <rect x="51" y="12" width="3" height="3"/>
    <rect x="57" y="12" width="3" height="3"/>

    <!-- space: x=63..74 empty -->

    <!-- B (x=75) -->
    <rect x="75" y="0"  width="3" height="3"/>
    <rect x="78" y="0"  width="3" height="3"/>
    <rect x="75" y="3"  width="3" height="3"/>
    <rect x="81" y="3"  width="3" height="3"/>
    <rect x="75" y="6"  width="3" height="3"/>
    <rect x="78" y="6"  width="3" height="3"/>
    <rect x="75" y="9"  width="3" height="3"/>
    <rect x="81" y="9"  width="3" height="3"/>
    <rect x="75" y="12" width="3" height="3"/>
    <rect x="78" y="12" width="3" height="3"/>

    <!-- R (x=87) -->
    <rect x="87" y="0"  width="3" height="3"/>
    <rect x="90" y="0"  width="3" height="3"/>
    <rect x="87" y="3"  width="3" height="3"/>
    <rect x="93" y="3"  width="3" height="3"/>
    <rect x="87" y="6"  width="3" height="3"/>
    <rect x="90" y="6"  width="3" height="3"/>
    <rect x="87" y="9"  width="3" height="3"/>
    <rect x="93" y="9"  width="3" height="3"/>
    <rect x="87" y="12" width="3" height="3"/>
    <rect x="93" y="12" width="3" height="3"/>

    <!-- I (x=99) -->
    <rect x="99"  y="0"  width="3" height="3"/>
    <rect x="102" y="0"  width="3" height="3"/>
    <rect x="105" y="0"  width="3" height="3"/>
    <rect x="102" y="3"  width="3" height="3"/>
    <rect x="102" y="6"  width="3" height="3"/>
    <rect x="102" y="9"  width="3" height="3"/>
    <rect x="99"  y="12" width="3" height="3"/>
    <rect x="102" y="12" width="3" height="3"/>
    <rect x="105" y="12" width="3" height="3"/>

    <!-- D (x=111) -->
    <rect x="111" y="0"  width="3" height="3"/>
    <rect x="114" y="0"  width="3" height="3"/>
    <rect x="111" y="3"  width="3" height="3"/>
    <rect x="117" y="3"  width="3" height="3"/>
    <rect x="111" y="6"  width="3" height="3"/>
    <rect x="117" y="6"  width="3" height="3"/>
    <rect x="111" y="9"  width="3" height="3"/>
    <rect x="117" y="9"  width="3" height="3"/>
    <rect x="111" y="12" width="3" height="3"/>
    <rect x="114" y="12" width="3" height="3"/>

    <!-- G (x=123) -->
    <rect x="126" y="0"  width="3" height="3"/>
    <rect x="129" y="0"  width="3" height="3"/>
    <rect x="123" y="3"  width="3" height="3"/>
    <rect x="123" y="6"  width="3" height="3"/>
    <rect x="129" y="6"  width="3" height="3"/>
    <rect x="132" y="6"  width="3" height="3"/>
    <rect x="123" y="9"  width="3" height="3"/>
    <rect x="132" y="9"  width="3" height="3"/>
    <rect x="123" y="12" width="3" height="3"/>
    <rect x="126" y="12" width="3" height="3"/>
    <rect x="129" y="12" width="3" height="3"/>
    <rect x="132" y="12" width="3" height="3"/>

    <!-- E (x=138) -->
    <rect x="138" y="0"  width="3" height="3"/>
    <rect x="141" y="0"  width="3" height="3"/>
    <rect x="144" y="0"  width="3" height="3"/>
    <rect x="138" y="3"  width="3" height="3"/>
    <rect x="138" y="6"  width="3" height="3"/>
    <rect x="141" y="6"  width="3" height="3"/>
    <rect x="138" y="9"  width="3" height="3"/>
    <rect x="138" y="12" width="3" height="3"/>
    <rect x="141" y="12" width="3" height="3"/>
    <rect x="144" y="12" width="3" height="3"/>

  </g>
</svg>
